<svg xmlns="http://www.w3.org/2000/svg" xmlns:svg="http://www.w3.org/2000/svg" id="svg2" width="600" height="80" version="1.1" style="display:inline"><defs id="defs4"><marker id="Arrow1Mend" orient="auto" refX="0" refY="0" style="overflow:visible"><path id="path3679" d="M 0,0 5,-5 -12.5,0 5,5 0,0 z" transform="matrix(-0.4,0,0,-0.4,-4,0)" style="fill-rule:evenodd;stroke:#000;stroke-width:1pt;marker-start:none"/></marker></defs><metadata id="metadata7"/><g id="layer1" transform="translate(0,-972.36218)" style="display:inline"><rect style="color:#000;fill:#def;fill-opacity:1;fill-rule:nonzero;stroke:none;stroke-width:4.5;marker:none;visibility:visible;display:inline;overflow:visible;enable-background:accumulate" id="rect2816" width="600" height="80" x="0" y="972.362"/></g><g id="layer3" style="display:inline"><rect style="color:#000;fill:#fff;fill-opacity:1;fill-rule:nonzero;stroke:none;stroke-width:4.5;marker:none;visibility:visible;display:inline;overflow:visible;enable-background:accumulate" id="rect3613" width="20" height="20" x="26" y="15"/><rect style="color:#000;fill:#fff;fill-opacity:1;fill-rule:nonzero;stroke:none;stroke-width:4.5;marker:none;visibility:visible;display:inline;overflow:visible;enable-background:accumulate" id="rect3613-1" width="20" height="20" x="26" y="45"/><rect style="color:#000;fill:#fff;fill-opacity:1;fill-rule:nonzero;stroke:none;stroke-width:4.5;marker:none;visibility:visible;display:inline;overflow:visible;enable-background:accumulate" id="rect3613-9" width="47.931" height="20" x="106" y="15"/><rect style="color:#000;fill:#fff;fill-opacity:1;fill-rule:nonzero;stroke:none;stroke-width:4.5;marker:none;visibility:visible;display:inline;overflow:visible;enable-background:accumulate" id="rect3613-1-4" width="47.931" height="20" x="106" y="45"/></g><g id="layer4" style="display:none"><rect style="color:#000;fill:#fff;fill-opacity:1;fill-rule:nonzero;stroke:none;stroke-width:4.5;marker:none;visibility:visible;display:inline;overflow:visible;enable-background:accumulate" id="rect3613-7" width="20" height="20" x="203" y="15"/><path style="fill:#fff;stroke:gray;stroke-width:1.27465463;display:inline" id="path4451-1" d="m 210.13917,17.684995 6.75987,-0.45066 -1.35197,9.463828 2.70395,0.450659 -4.50658,5.85856 -5.85857,-5.85856 4.05593,-0.450659 -1.80263,-9.013168 z"/><rect style="color:#000;fill:#fff;fill-opacity:1;fill-rule:nonzero;stroke:none;stroke-width:4.5;marker:none;visibility:visible;display:inline;overflow:visible;enable-background:accumulate" id="rect3613-1-41" width="20" height="20" x="203" y="45"/><path style="fill:gray;stroke:none;display:inline" id="path4451-2-0" d="m 209.4952,47.493439 7.09211,-0.472809 -1.41842,9.928969 2.83685,0.472809 -4.72808,6.146505 -6.14651,-6.146505 4.25527,-0.472809 -1.89122,-9.45616 z"/></g><path style="fill:#999;stroke:none" id="path3637" d="m 27.120058,26.742118 c 0,0 3.980421,-4.823284 8.354171,-4.823284 4.373751,0 9.677052,4.46973 9.677052,4.46973 0,0 -3.960376,4.836438 -9.129727,4.905025 -5.865556,0.07782 -5.949148,-2.597866 -8.901496,-4.551471 z"/><path style="fill:#999;stroke:none" id="path3639" d="M 27.353553,25.78033 26,21.75 28.103553,22.585786 28,20.25 29.853553,22.15901 29.75,18.75 32.603553,20.512563 34,17.75 36.56066,19.896447 39.25,18.25 40.207107,21.56066 43.75,20 l 0,3.5 2.25,0 -1,2 c 0,0 -5.418615,-4.122486 -9.133883,-4.116117 -3.023308,0.0052 -6.525662,2.02981 -8.512564,4.396447 z"/><path style="color:#000;fill:#fff;fill-opacity:1;fill-rule:nonzero;stroke:none;stroke-width:4.5;marker:none;visibility:visible;display:inline;overflow:visible;enable-background:accumulate" id="path3641" d="m 37.476661,23.431458 a 4.2426405,4.2426405 0 1 1 -8.485281,0 4.2426405,4.2426405 0 1 1 8.485281,0 z" transform="matrix(0.87499999,0,0,0.87499999,6.9826798,6.1109128)"/><path style="color:#000;fill:#999;fill-opacity:1;fill-rule:nonzero;stroke:none;stroke-width:4.5;marker:none;visibility:visible;display:inline;overflow:visible;enable-background:accumulate" id="path3641-3" d="m 37.476661,23.431458 a 4.2426405,4.2426405 0 1 1 -8.485281,0 4.2426405,4.2426405 0 1 1 8.485281,0 z" transform="matrix(0.4583333,0,0,0.4583333,20.830189,15.874021)"/><path style="fill:none;stroke:#999;stroke-width:1.69599533;stroke-linecap:butt;stroke-linejoin:miter;stroke-miterlimit:4;stroke-opacity:1;stroke-dasharray:none;marker-end:none" id="path3665" d="m 35.168814,46.261679 c 0.132999,0.0665 -0.519044,7.299525 1.203945,7.082011 4.638037,-0.585516 4.42641,4.515684 4.658764,7.476311"/><path style="fill:none;stroke:#999;stroke-width:1.32799995;stroke-linecap:butt;stroke-linejoin:miter;stroke-miterlimit:4;stroke-opacity:1;stroke-dasharray:none" id="path4299" d="m 35.690745,53.446072 c 0,0 -5.286814,0.195419 -5.490153,2.540457 -0.203339,2.345038 -0.203339,4.494655 -0.203339,4.494655"/><path style="fill:#999;fill-opacity:1;stroke:none" id="path4301" d="m 27.363959,58.691704 5.371729,0 -2.387435,4.973822 -2.984294,-4.973822 z"/><path style="fill:#999;fill-opacity:1;stroke:none" id="path4303" d="m 37.510557,59.08961 3.780105,5.57068 2.586387,-5.968586 -6.366492,0.397906 z"/><flowRoot id="flowRoot4305" transform="translate(0,0.82295848)" xml:space="preserve" style="font-size:10px;font-style:normal;font-variant:normal;font-weight:400;font-stretch:normal;fill:gray;fill-opacity:1;stroke:none;font-family:Helvetica LT;-inkscape-font-specification:Helvetica LT"><flowRegion id="flowRegion4307"><rect id="rect4309" width="30.75" height="14.5" x="51.5" y="17.625" style="font-size:10px;font-style:normal;font-variant:normal;font-weight:400;font-stretch:normal;fill:gray;font-family:Helvetica LT;-inkscape-font-specification:Helvetica LT"/></flowRegion><flowPara id="flowPara4311">217</flowPara></flowRoot><flowRoot id="flowRoot4305-9" transform="translate(0.43859381,30.727958)" xml:space="preserve" style="font-size:10px;font-style:normal;font-variant:normal;font-weight:400;font-stretch:normal;fill:gray;fill-opacity:1;stroke:none;font-family:Helvetica LT;-inkscape-font-specification:Helvetica LT"><flowRegion id="flowRegion4307-2"><rect id="rect4309-8" width="30.75" height="14.5" x="51.5" y="17.625" style="font-size:10px;font-style:normal;font-variant:normal;font-weight:400;font-stretch:normal;fill:gray;font-family:Helvetica LT;-inkscape-font-specification:Helvetica LT"/></flowRegion><flowPara id="flowPara4311-0">33</flowPara></flowRoot><path style="fill:none;stroke:#fff;stroke-width:1px;stroke-linecap:butt;stroke-linejoin:miter;stroke-opacity:1" id="path4344" d="M 85,6.9999999 85,73"/><flowRoot id="flowRoot4305-2" transform="translate(110,0.822958)" xml:space="preserve" style="font-size:10px;font-style:normal;font-variant:normal;font-weight:400;font-stretch:normal;fill:gray;fill-opacity:1;stroke:none;font-family:Helvetica LT;-inkscape-font-specification:Helvetica LT"><flowRegion id="flowRegion4307-7"><rect id="rect4309-7" width="30.75" height="14.5" x="51.5" y="17.625" style="font-size:10px;font-style:normal;font-variant:normal;font-weight:400;font-stretch:normal;fill:gray;font-family:Helvetica LT;-inkscape-font-specification:Helvetica LT"/></flowRegion><flowPara id="flowPara4311-07">501</flowPara></flowRoot><flowRoot id="flowRoot4305-9-9" transform="translate(110.43859,30.727958)" xml:space="preserve" style="font-size:10px;font-style:normal;font-variant:normal;font-weight:400;font-stretch:normal;fill:gray;fill-opacity:1;stroke:none;font-family:Helvetica LT;-inkscape-font-specification:Helvetica LT"><flowRegion id="flowRegion4307-2-5"><rect id="rect4309-8-0" width="30.75" height="14.5" x="51.5" y="17.625" style="font-size:10px;font-style:normal;font-variant:normal;font-weight:400;font-stretch:normal;fill:gray;font-family:Helvetica LT;-inkscape-font-specification:Helvetica LT"/></flowRegion><flowPara id="flowPara4311-0-7">419</flowPara></flowRoot><path style="fill:none;stroke:gray" id="path4451" d="m 140.83557,19.895924 5.3033,-0.353554 -1.06066,7.424621 2.12132,0.353554 -3.53553,4.596194 -4.5962,-4.596194 3.18198,-0.353554 -1.41421,-7.071067 z"/><flowRoot id="flowRoot4305-2-7" transform="translate(61.45859,0.82295848)" xml:space="preserve" style="font-size:10px;font-style:normal;font-variant:normal;font-weight:400;font-stretch:normal;fill:gray;fill-opacity:1;stroke:none;font-family:Helvetica LT;-inkscape-font-specification:Helvetica LT"><flowRegion id="flowRegion4307-7-3"><rect id="rect4309-7-9" width="30.75" height="14.5" x="51.5" y="17.625" style="font-size:10px;font-style:normal;font-variant:normal;font-weight:400;font-stretch:normal;fill:gray;font-family:Helvetica LT;-inkscape-font-specification:Helvetica LT"/></flowRegion><flowPara id="flowPara4311-07-8">PyPi</flowPara></flowRoot><flowRoot id="flowRoot4305-9-9-3" transform="translate(60.43859,30.727959)" xml:space="preserve" style="font-size:10px;font-style:normal;font-variant:normal;font-weight:400;font-stretch:normal;fill:gray;fill-opacity:1;stroke:none;font-family:Helvetica LT;-inkscape-font-specification:Helvetica LT"><flowRegion id="flowRegion4307-2-5-0"><rect id="rect4309-8-0-3" width="30.75" height="14.5" x="51.5" y="17.625" style="font-size:10px;font-style:normal;font-variant:normal;font-weight:400;font-stretch:normal;fill:gray;font-family:Helvetica LT;-inkscape-font-specification:Helvetica LT"/></flowRegion><flowPara id="flowPara4311-0-7-5">Repo</flowPara></flowRoot><path style="fill:gray;stroke:none" id="path4451-2" d="m 140.83557,49.895924 5.3033,-0.353554 -1.06066,7.424621 2.12132,0.353554 -3.53553,4.596194 -4.5962,-4.596194 3.18198,-0.353554 -1.41421,-7.071067 z"/><path style="fill:none;stroke:#fff;stroke-width:1px;stroke-linecap:butt;stroke-linejoin:miter;stroke-opacity:1" id="path4344-2" d="m 195,7 0,66"/></svg>